<svg width="24" height="24" viewBox="0 0 24 24" fill="none" xmlns="http://www.w3.org/2000/svg">
<path d="M17.5298 11.2C17.2998 10.9 17.0298 10.64 16.7698 10.38C16.1198 9.78 15.3698 9.35 14.7398 8.72C13.2798 7.26 12.9598 4.85 13.8898 3C12.9898 3.23 12.1398 3.75 11.4398 4.32C8.89985 6.4 7.89985 10.07 9.09985 13.22C9.13985 13.32 9.17985 13.42 9.17985 13.55C9.17985 13.77 9.02985 13.97 8.82985 14.05C8.60985 14.15 8.36985 14.09 8.18985 13.93C8.12985 13.88 8.08985 13.83 8.03985 13.76C6.93985 12.33 6.75985 10.28 7.50985 8.64C5.86985 10 4.99985 12.3 5.11985 14.47C5.15985 14.97 5.21985 15.47 5.38985 15.97C5.52985 16.57 5.78985 17.17 6.10985 17.7C7.14985 19.43 8.97985 20.67 10.9498 20.92C13.0498 21.19 15.2998 20.8 16.9098 19.32C18.7098 17.66 19.3598 15.02 18.4098 12.72L18.2798 12.46C18.0798 12.01 17.8098 11.59 17.4998 11.21L17.5298 11.2ZM14.4298 17.5C14.1498 17.74 13.6998 18 13.3498 18.1C12.2498 18.48 11.1498 17.94 10.4698 17.28C11.6698 17 12.3698 16.12 12.5698 15.23C12.7398 14.43 12.4298 13.77 12.2998 13C12.1798 12.26 12.1998 11.63 12.4998 10.94C12.6498 11.32 12.8498 11.7 13.0798 12C13.8398 13 15.0298 13.44 15.2798 14.8C15.3198 14.94 15.3398 15.08 15.3398 15.23C15.3698 16.05 15.0198 16.95 14.4198 17.49L14.4298 17.5Z" fill="#606060"/>
</svg>
