<svg width="129" height="56" viewBox="0 0 129 56" fill="none" xmlns="http://www.w3.org/2000/svg">
<path d="M30.4848 38C30.4848 38 39.5695 38 41.8229 37.4C43.0917 37.06 44.0459 36.08 44.3808 34.87C45 32.65 45 27.98 45 27.98C45 27.98 45 23.34 44.3808 21.14C44.0459 19.9 43.0917 18.94 41.8229 18.61C39.5695 18 30.4848 18 30.4848 18C30.4848 18 21.4204 18 19.1771 18.61C17.9286 18.94 16.9541 19.9 16.5989 21.14C16 23.34 16 27.98 16 27.98C16 27.98 16 32.65 16.5989 34.87C16.9541 36.08 17.9286 37.06 19.1771 37.4C21.4204 38 30.4848 38 30.4848 38Z" fill="#FF0033"/>
<path d="M35 28L27.5 23.75V32.25L35 28Z" fill="white"/>
<path d="M53.1384 36.8999V31.4399L56.6084 20.0999H54.0184L52.6984 25.2499C52.3984 26.4299 52.1284 27.6599 51.9284 28.7999H51.7684C51.6584 27.7999 51.3384 26.4899 51.0184 25.2299L49.7384 20.0999H47.1484L50.5684 31.4399V36.8999H53.1384Z" fill="black"/>
<path d="M60.1003 24.2999C57.0703 24.2999 56.0303 26.0499 56.0303 29.8199V31.6099C56.0303 34.9899 56.6803 37.1099 60.0403 37.1099C63.3503 37.1099 64.0603 35.0899 64.0603 31.6099V29.8199C64.0603 26.4499 63.3803 24.2999 60.1003 24.2999ZM61.3903 32.7199C61.3903 34.3599 61.1003 35.3899 60.0503 35.3899C59.0203 35.3899 58.7303 34.3499 58.7303 32.7199V28.6799C58.7303 27.2799 58.9303 26.0299 60.0503 26.0299C61.2303 26.0299 61.3903 27.3499 61.3903 28.6799V32.7199Z" fill="black"/>
<path d="M68.2713 37.0899C69.7313 37.0899 70.6413 36.4799 71.3913 35.3799H71.5013L71.6113 36.8999H73.6012V24.5399H70.9613V34.4699C70.6812 34.9599 70.0312 35.3199 69.4212 35.3199C68.6512 35.3199 68.4113 34.7099 68.4113 33.6899V24.5399H65.7812V33.8099C65.7812 35.8199 66.3613 37.0899 68.2713 37.0899Z" fill="black"/>
<path d="M78.8261 36.8999V22.1499H81.8661V20.0999H73.1761V22.1499H76.2161V36.8999H78.8261Z" fill="black"/>
<path d="M83.8728 37.0899C85.3328 37.0899 86.2428 36.4799 86.9928 35.3799H87.1028L87.2128 36.8999H89.2028V24.5399H86.5628V34.4699C86.2828 34.9599 85.6328 35.3199 85.0228 35.3199C84.2528 35.3199 84.0128 34.7099 84.0128 33.6899V24.5399H81.3828V33.8099C81.3828 35.8199 81.9628 37.0899 83.8728 37.0899Z" fill="black"/>
<path d="M96.6744 24.2699C95.3944 24.2699 94.4744 24.8299 93.8644 25.7399H93.7344C93.8144 24.5399 93.8744 23.5199 93.8744 22.7099V19.4399H91.3244L91.3144 30.1799L91.3244 36.8999H93.5444L93.7344 35.6999H93.8044C94.3944 36.5099 95.3044 37.0199 96.5144 37.0199C98.5244 37.0199 99.3844 35.2899 99.3844 31.6099V29.6999C99.3844 26.2599 98.9944 24.2699 96.6744 24.2699ZM96.7644 31.6099C96.7644 33.9099 96.4244 35.2799 95.3544 35.2799C94.8544 35.2799 94.1644 35.0399 93.8544 34.5899V27.2399C94.1244 26.5399 94.7244 26.0299 95.3944 26.0299C96.4744 26.0299 96.7644 27.3399 96.7644 29.7299V31.6099Z" fill="black"/>
<path d="M108.652 29.4999C108.652 26.5199 108.352 24.3099 104.922 24.3099C101.692 24.3099 100.972 26.4599 100.972 29.6199V31.7899C100.972 34.8699 101.632 37.1099 104.842 37.1099C107.382 37.1099 108.692 35.8399 108.542 33.3799L106.292 33.2599C106.262 34.7799 105.912 35.3999 104.902 35.3999C103.632 35.3999 103.572 34.1899 103.572 32.3899V31.5499H108.652V29.4999ZM104.862 25.9699C106.082 25.9699 106.172 27.1199 106.172 29.0699V30.0799H103.572V29.0699C103.572 27.1399 103.652 25.9699 104.862 25.9699Z" fill="black"/>
<path d="M117.614 19.2031C117.614 19.0371 117.588 18.8906 117.536 18.7637C117.487 18.6335 117.399 18.5163 117.272 18.4121C117.149 18.3079 116.976 18.2087 116.755 18.1143C116.537 18.0199 116.26 17.9238 115.925 17.8262C115.573 17.722 115.256 17.6064 114.973 17.4795C114.689 17.3493 114.447 17.2012 114.245 17.0352C114.043 16.8691 113.889 16.6787 113.781 16.4639C113.674 16.249 113.62 16.0033 113.62 15.7266C113.62 15.4499 113.677 15.1943 113.791 14.96C113.905 14.7256 114.068 14.5221 114.279 14.3496C114.494 14.1738 114.75 14.0371 115.046 13.9395C115.342 13.8418 115.673 13.793 116.037 13.793C116.571 13.793 117.023 13.8955 117.395 14.1006C117.769 14.3024 118.054 14.5677 118.249 14.8965C118.444 15.222 118.542 15.5703 118.542 15.9414H117.604C117.604 15.6745 117.548 15.4385 117.434 15.2334C117.32 15.0251 117.147 14.8623 116.916 14.7451C116.685 14.6247 116.392 14.5645 116.037 14.5645C115.702 14.5645 115.425 14.6149 115.207 14.7158C114.989 14.8167 114.826 14.9535 114.719 15.126C114.615 15.2985 114.562 15.4954 114.562 15.7168C114.562 15.8665 114.593 16.0033 114.655 16.127C114.72 16.2474 114.82 16.3597 114.953 16.4639C115.09 16.568 115.262 16.6641 115.471 16.752C115.682 16.8398 115.935 16.9245 116.228 17.0059C116.631 17.1198 116.979 17.2467 117.272 17.3867C117.565 17.5267 117.806 17.6846 117.995 17.8604C118.187 18.0329 118.329 18.2298 118.42 18.4512C118.514 18.6693 118.562 18.9167 118.562 19.1934C118.562 19.4831 118.503 19.7451 118.386 19.9795C118.269 20.2139 118.101 20.4141 117.883 20.5801C117.665 20.7461 117.403 20.8747 117.097 20.9658C116.794 21.0537 116.455 21.0977 116.081 21.0977C115.752 21.0977 115.428 21.0521 115.109 20.9609C114.794 20.8698 114.506 20.7331 114.245 20.5508C113.988 20.3685 113.781 20.1439 113.625 19.877C113.472 19.6068 113.396 19.2943 113.396 18.9395H114.333C114.333 19.1836 114.38 19.3936 114.475 19.5693C114.569 19.7419 114.698 19.8851 114.86 19.999C115.026 20.113 115.214 20.1976 115.422 20.2529C115.633 20.305 115.853 20.3311 116.081 20.3311C116.41 20.3311 116.688 20.2855 116.916 20.1943C117.144 20.1032 117.316 19.973 117.434 19.8037C117.554 19.6344 117.614 19.4342 117.614 19.2031ZM122.395 14.5205L120.041 21H119.079L121.789 13.8906H122.409L122.395 14.5205ZM124.367 21L122.009 14.5205L121.994 13.8906H122.614L125.334 21H124.367ZM124.245 18.3682V19.1396H120.251V18.3682H124.245Z" fill="#606060"/>
</svg>
